<?xml version="1.0" encoding="utf-8"?><svg viewBox="0 0 14 16" xmlns="http://www.w3.org/2000/svg" xmlns:xlink="http://www.w3.org/1999/xlink"><style>:root>svg{display:none}:root>svg:target{display:block}</style><svg fill="none" viewBox="0 0 9 16" id="back" xmlns="http://www.w3.org/2000/svg"><path opacity=".7" d="M8 15L1 8l7-7" stroke="#818C99" stroke-width="2" stroke-linecap="round" stroke-linejoin="round"/></svg><svg fill="none" viewBox="0 0 9 16" id="back" xmlns="http://www.w3.org/2000/svg"><path opacity=".7" d="M8 15L1 8l7-7" stroke="#818C99" stroke-width="2" stroke-linecap="round" stroke-linejoin="round"/></svg><svg fill="none" viewBox="0 0 14 14" id="close" xmlns="http://www.w3.org/2000/svg"><path d="M2.207.793A1 1 0 00.793 2.207L5.586 7 .793 11.793a1 1 0 101.414 1.414L7 8.414l4.793 4.793a1 1 0 001.414-1.414L8.414 7l4.793-4.793A1 1 0 0011.793.793L7 5.586 2.207.793z" fill="#99A2AD"/></svg><svg fill="none" viewBox="0 0 14 14" id="close" xmlns="http://www.w3.org/2000/svg"><path d="M2.207.793A1 1 0 00.793 2.207L5.586 7 .793 11.793a1 1 0 101.414 1.414L7 8.414l4.793 4.793a1 1 0 001.414-1.414L8.414 7l4.793-4.793A1 1 0 0011.793.793L7 5.586 2.207.793z" fill="#99A2AD"/></svg><svg fill="none" viewBox="0 0 14 15" id="search" xmlns="http://www.w3.org/2000/svg"><path d="M5.5 0a5.5 5.5 0 014.383 8.823l3.896 3.9a.75.75 0 01-1.061 1.06l-3.895-3.9A5.5 5.5 0 115.5 0zm0 1.5a4 4 0 100 8 4 4 0 000-8z" fill="#99A2AD"/></svg><svg fill="none" viewBox="0 0 14 15" id="search" xmlns="http://www.w3.org/2000/svg"><path d="M5.5 0a5.5 5.5 0 014.383 8.823l3.896 3.9a.75.75 0 01-1.061 1.06l-3.895-3.9A5.5 5.5 0 115.5 0zm0 1.5a4 4 0 100 8 4 4 0 000-8z" fill="#99A2AD"/></svg></svg>